<?xml version="1.0" encoding="UTF-8" standalone="yes"?>
<svg xmlns="http://www.w3.org/2000/svg" fill-rule="evenodd" baseProfile="tiny-ps" version="1.2"
  viewBox="0 0 300 300">
  <title>Rishav Dhar</title>
  <desc>Rishav Dhar</desc>
  <path fill="#63949b" d="M-.5-.5h300v300H-.5V-.5Z" />
  <path fill="#fdfdfd"
    d="M250.5 246.5c-14.219-10.778-29.886-18.944-47-24.5a141.339 141.339 0 0 0-14-7.5 409.027 409.027 0 0 1-6-3c-1.406-.473-2.073-1.473-2-3a1188.561 1188.561 0 0 1 8-17c2.721-4.175 4.054-8.841 4-14a279.768 279.768 0 0 0 7-32c-.522-6.219-1.522-12.219-3-18v-3a437.772 437.772 0 0 0 15-5c-.848-1.491-2.181-2.158-4-2-3.878.601-3.878 1.435 0 2.5-3.356 1.182-6.69 1.349-10 .5a29.817 29.817 0 0 0 3-10c.801-1.542 1.134-3.208 1-5v-25c.198-5.25-.469-10.25-2-15h-1c-.237-1.291.096-2.291 1-3 3.049-7.784 1.883-15.117-3.5-22-1.651-1.71-3.484-3.044-5.5-4a292.587 292.587 0 0 1-27-17.5 4.932 4.932 0 0 0-3-.5c-3.891-1.507-8.058-2.174-12.5-2l-8.5.5c-1.566.608-2.9 1.442-4 2.5-8.556-.28-16.89.386-25 2l-1 2c-2.925-.04-5.591.793-8 2.5-7.15 5.696-13.65 12.196-19.5 19.5l-13.5 27c-1.325 3.776-1.992 7.943-2 12.5-.71 8.384.624 16.217 4 23.5l3 6a51.648 51.648 0 0 0-1 7c-1.618 9.115-1.118 18.115 1.5 27 2.452 7.479 7.618 10.812 15.5 10 .93 7.288 2.596 14.288 5 21 .993 3.323 1.993 6.656 3 10-.958.453-1.792 1.119-2.5 2-2.26 6.715-6.093 12.215-11.5 16.5a2036.595 2036.595 0 0 0-56 23.5c-.996.086-1.83-.248-2.5-1-27.183-45.452-30.85-92.785-11-142C37.779 42.68 74.279 14.512 124.5 4 181.643-3.332 228.809 14.835 266 58.5c33.091 45.307 39.758 94.307 20 147-6.868 16.582-16.368 31.415-28.5 44.5-2.8-.066-5.133-1.233-7-3.5Z" />
  <path fill="#332c26"
    d="M189.5 191.5a1188.561 1188.561 0 0 0-8 17c.188-1.603-.312-2.937-1.5-4-1.699.906-3.533 1.239-5.5 1 .841-2.012 2.341-3.345 4.5-4 1.515-4.399 3.681-8.399 6.5-12a3.647 3.647 0 0 0 1.5-1c1.041.971 1.874 1.971 2.5 3Z" />
  <path fill="#976a4c"
    d="M132.5 187.5c-1.38 2.219-1.046 4.219 1 6a18.074 18.074 0 0 0 8 2c-.343-1.983.324-3.317 2-4a19.22 19.22 0 0 1 6 1c-1.581 4.423.085 6.09 5 5a8.43 8.43 0 0 0 .5 4c1.197-2.383 2.03-2.05 2.5 1-1.981 4.465-4.981 5.132-9 2a14.972 14.972 0 0 0-3.5 3l-2.5-3c-.798.457-1.131 1.124-1 2-1.527.073-2.527-.594-3-2 1.56-1.629 1.227-2.796-1-3.5a7.293 7.293 0 0 0 3-2 21.438 21.438 0 0 1-5 0 42.098 42.098 0 0 1-6-9c.248-1.749 1.248-2.582 3-2.5Z" />
  <path fill="#6b4b38"
    d="M149.5 192.5h10c-2.448.973-5.115 1.306-8 1v3a161.574 161.574 0 0 0 16-1h8v5c-1.624-.14-2.79.527-3.5 2a3.647 3.647 0 0 0-1.5-1 10.776 10.776 0 0 0-2 6c-3.845-.081-7.178-.747-10-2-1.09.891-1.09 1.891 0 3a8.192 8.192 0 0 0-2.5 4 4.934 4.934 0 0 1-.5-3 272.002 272.002 0 0 0-6 2c-2.424.352-3.924-.648-4.5-3-.383.556-.883.889-1.5 1-.282-1.278-.949-2.278-2-3-.131-.876.202-1.543 1-2l2.5 3a14.972 14.972 0 0 1 3.5-3c4.019 3.132 7.019 2.465 9-2-.47-3.05-1.303-3.383-2.5-1a8.43 8.43 0 0 1-.5-4c-4.915 1.09-6.581-.577-5-5Z" />
  <path fill="#573d2d"
    d="M138.5 204.5c.473 1.406 1.473 2.073 3 2 1.051.722 1.718 1.722 2 3-.996-.086-1.829.248-2.5 1-.451-2.429-1.285-2.596-2.5-.5-1.667.667-3.333.667-5 0 1.035-1.507.868-3.007-.5-4.5-1.444 1.655-3.278 2.322-5.5 2 .262-1.478-.071-2.811-1-4a143.028 143.028 0 0 1-16-6.5c-.906-1.699-1.239-3.533-1-5.5h-5c.067-1.459-.266-2.792-1-4 .967-1.306 2.301-1.973 4-2v3h3v3c4.257-.903 6.757.764 7.5 5a34 34 0 0 0 9-3c1.528 3.352 4.028 5.685 7.5 7a3.647 3.647 0 0 1-1 1.5 64.899 64.899 0 0 1 5 2.5Z" />
  <path fill="#291913"
    d="M171.5 191.5c.543.06.876.393 1 1a31.642 31.642 0 0 1-5 3c-5.313.598-10.646.931-16 1v-3c2.885.306 5.552-.027 8-1 3.798-.983 7.798-1.317 12-1Z" />
  <path fill="#773f3c"
    d="M147.5 177.5c3.084 1.591 7.084 2.257 12 2 .291 1.149 1.124 1.816 2.5 2l7-2a16.816 16.816 0 0 0 6.5 2c-.892 3.427-2.892 6.261-6 8.5.916.278 1.582.778 2 1.5-4.202-.317-8.202.017-12 1h-10a4.934 4.934 0 0 0-.5-3c-5.973-2.493-5.473-3.493 1.5-3 .111.617.444 1.117 1 1.5a64.218 64.218 0 0 0 16 0c3.376-.307 4.71-2.14 4-5.5h-20c-2.448-.973-5.115-1.306-8-1l-5-2c1.915.284 3.581-.049 5-1 1.208-.734 2.541-1.067 4-1Z" />
  <path fill="#ab7753"
    d="M143.5 191.5c-1.676.683-2.343 2.017-2 4a18.074 18.074 0 0 1-8-2c-2.046-1.781-2.38-3.781-1-6 1.7-.126 3.2-.793 4.5-2 2.716 1.555 4.883 3.555 6.5 6Z" />
  <path fill="#392a20"
    d="M95.5 179.5c2.459 1.552 3.959 3.885 4.5 7 1.011.837 2.178 1.17 3.5 1 .734 1.208 1.067 2.541 1 4h5c-.239 1.967.094 3.801 1 5.5a143.028 143.028 0 0 0 16 6.5c.929 1.189 1.262 2.522 1 4 2.222.322 4.056-.345 5.5-2 1.368 1.493 1.535 2.993.5 4.5 1.667.667 3.333.667 5 0 1.215-2.096 2.049-1.929 2.5.5.671-.752 1.504-1.086 2.5-1 .617-.111 1.117-.444 1.5-1 .576 2.352 2.076 3.352 4.5 3a272.002 272.002 0 0 1 6-2 4.934 4.934 0 0 0 .5 3 8.192 8.192 0 0 1 2.5-4c-1.09-1.109-1.09-2.109 0-3 2.822 1.253 6.155 1.919 10 2 1.325-1.453 2.158-1.119 2.5 1a22.981 22.981 0 0 0 2-5c.464.594.631 1.261.5 2-.898 2.966-2.231 5.8-4 8.5-2.654-.246-5.321.421-8 2-6 .667-12 .667-18 0-3.52-2.067-7.354-3.567-11.5-4.5l-1 1c-1.825-2.447-3.992-3.114-6.5-2a23.423 23.423 0 0 1-6-2.5c-6.725-4.836-12.725-10.336-18-16.5-.333-1-1-1.667-2-2a4360.116 4360.116 0 0 1-3-10Z" />
  <path fill="#ae6066"
    d="M151.5 182.5h20c.71 3.36-.624 5.193-4 5.5a64.218 64.218 0 0 1-16 0c-.556-.383-.889-.883-1-1.5-8.266-2.718-7.933-4.052 1-4Z" />
  <path fill="#986056"
    d="M143.5 181.5c2.885-.306 5.552.027 8 1-8.933-.052-9.266 1.282-1 4-6.973-.493-7.473.507-1.5 3 .483.948.649 1.948.5 3a19.22 19.22 0 0 0-6-1c-1.617-2.445-3.784-4.445-6.5-6-1.3 1.207-2.8 1.874-4.5 2v-2a54.32 54.32 0 0 1 11-4Z" />
  <path fill="#4e3d32"
    d="M193.5 175.5v2c.054 5.159-1.279 9.825-4 14-.626-1.029-1.459-2.029-2.5-3a3.647 3.647 0 0 1-1.5 1c-2.819 3.601-4.985 7.601-6.5 12-2.159.655-3.659 1.988-4.5 4h-1a2.428 2.428 0 0 0-.5-2 22.981 22.981 0 0 1-2 5c-.342-2.119-1.175-2.453-2.5-1a10.776 10.776 0 0 1 2-6 3.647 3.647 0 0 1 1.5 1c.71-1.473 1.876-2.14 3.5-2 1.175.219 2.175-.114 3-1a57.475 57.475 0 0 0 3.5-10c4.001-2.004 4.501-4.671 1.5-8 3.703 1.667 5.703.334 6-4 .617.111 1.117.444 1.5 1 .236-1.619 1.069-2.619 2.5-3Z" />
  <path fill="#583b2e"
    d="M176.5 156.5c1.888 2.488 2.555 5.488 2 9a53.768 53.768 0 0 0-10-2 9.108 9.108 0 0 0 1 5c3.414 3.279 7.08 6.113 11 8.5-3.025.133-5.692 1.133-8 3 3.856.177 7.523.677 11 1.5 3.001 3.329 2.501 5.996-1.5 8a57.475 57.475 0 0 1-3.5 10c-.825.886-1.825 1.219-3 1v-5h-8a31.642 31.642 0 0 0 5-3c-.124-.607-.457-.94-1-1-.418-.722-1.084-1.222-2-1.5 3.108-2.239 5.108-5.073 6-8.5a16.816 16.816 0 0 1-6.5-2l-7 2c-1.376-.184-2.209-.851-2.5-2 3.443-.559 6.443-1.893 9-4 .767-.672 1.434-1.505 2-2.5l-10 1a30.786 30.786 0 0 0-3-4.5c1.383-3.443 4.05-4.943 8-4.5a4.457 4.457 0 0 1-2-1.5c1.86-.825 3.526-1.825 5-3 3.556.222 6.223-1.111 8-4Z" />
  <path fill="#48271b"
    d="m138.5 179.5 5 2a54.32 54.32 0 0 0-11 4c-1.965-.448-2.298-1.448-1-3 1.987-1.827 4.321-2.827 7-3Z" />
  <path fill="#a2724d"
    d="M91.5 143.5c4.863 10.066 8.863 20.733 12 32 4.02.307 8.02 1.307 12 3 1.465.906 2.465 2.239 3 4 1.578.572 3.078.906 4.5 1a28.946 28.946 0 0 1 3-10c2.511-2.456 5.344-3.123 8.5-2a39.445 39.445 0 0 0-5 2.5c3.861.569 3.861 1.402 0 2.5a15.645 15.645 0 0 0-2.5 4 65.75 65.75 0 0 1-1.5 10 13.116 13.116 0 0 1-7 1v-3c-3.771.726-6.437-.607-8-4a139.582 139.582 0 0 1-9.5-6l-3-16a58.102 58.102 0 0 1-5-11 34.084 34.084 0 0 1-1.5-8Z" />
  <path fill="#31251d"
    d="M178.5 165.5c.304.65.637 1.317 1 2 6.898-.192 10.231 3.141 10 10-.297 4.334-2.297 5.667-6 4-3.477-.823-7.144-1.323-11-1.5 2.308-1.867 4.975-2.867 8-3-3.92-2.387-7.586-5.221-11-8.5a9.108 9.108 0 0 1-1-5 53.768 53.768 0 0 1 10 2Z" />
  <path fill="#8f5441"
    d="M168.5 175.5c-2.557 2.107-5.557 3.441-9 4-4.916.257-8.916-.409-12-2 1.956-2.048 4.456-3.048 7.5-3 4.453 1.731 8.953 2.064 13.5 1Z" />
  <path fill="#a47258"
    d="M159.5 159.5c1.098 1.101 1.265 2.434.5 4-4.574.789-5.407 2.789-2.5 6a30.786 30.786 0 0 1 3 4.5l10-1c-.566.995-1.233 1.828-2 2.5-4.547 1.064-9.047.731-13.5-1-3.044-.048-5.544.952-7.5 3-1.459-.067-2.792.266-4 1-1.548-.321-2.215-1.321-2-3a37.865 37.865 0 0 0 7.5-3c.957 2.209 2.124 2.043 3.5-.5-2.544-1.775-2.544-3.608 0-5.5-1.545-.952-3.212-1.285-5-1a305.962 305.962 0 0 1 11-2.5c.837-1.011 1.17-2.178 1-3.5Z" />
  <path fill="#b67e55"
    d="M105.5 116.5c-2.457 2.184-2.457 4.518 0 7h-10a113.761 113.761 0 0 1-1 15 24.365 24.365 0 0 0 1.5 10 104.478 104.478 0 0 1 13 24c2 1.333 3.667 3 5 5 1.107-1.212 1.607-.879 1.5 1-3.98-1.693-7.98-2.693-12-3-3.137-11.267-7.137-21.934-12-32-.99-6.479-1.324-13.146-1-20 1.986-2.425 3.32-5.258 4-8.5 3.948-.745 7.615-.245 11 1.5Z" />
  <path fill="#cb8f68"
    d="M94.5 138.5c1.755 5.5 4.589 10.5 8.5 15a14.72 14.72 0 0 0 1.5 5c3.825 2.326 6.159 5.66 7 10 2.436-.183 4.603.484 6.5 2a3.647 3.647 0 0 1 1.5-1 11.068 11.068 0 0 0 3.5 2 211.35 211.35 0 0 1 7.5-3c.418-.722 1.084-1.222 2-1.5a32.462 32.462 0 0 1 8-.5 4.934 4.934 0 0 1 .5-3c1.356.88 2.856 1.214 4.5 1 .111 2.148-.556 2.481-2 1-2.117 2.331-4.784 3.497-8 3.5-.752.671-1.086 1.504-1 2.5-3.156-1.123-5.989-.456-8.5 2a28.946 28.946 0 0 0-3 10c-1.422-.094-2.922-.428-4.5-1-.535-1.761-1.535-3.094-3-4 .107-1.879-.393-2.212-1.5-1-1.333-2-3-3.667-5-5a104.478 104.478 0 0 0-13-24 24.365 24.365 0 0 1-1.5-10Z" />
  <path fill="#725241"
    d="M176.5 156.5c1.068-.934 2.401-1.268 4-1a40.914 40.914 0 0 0 .5 9 20.855 20.855 0 0 1 6.5 3 21.614 21.614 0 0 0 4 5 31.147 31.147 0 0 1 2-2v5c-1.431.381-2.264 1.381-2.5 3-.383-.556-.883-.889-1.5-1 .231-6.859-3.102-10.192-10-10a43.836 43.836 0 0 1-1-2c.555-3.512-.112-6.512-2-9Z" />
  <path fill="#76523b"
    d="M90.5 123.5c-.324 6.854.01 13.521 1 20a34.084 34.084 0 0 0 1.5 8 58.102 58.102 0 0 0 5 11l3 16a139.582 139.582 0 0 0 9.5 6c1.563 3.393 4.229 4.726 8 4v3a13.116 13.116 0 0 0 7-1 65.75 65.75 0 0 0 1.5-10 15.645 15.645 0 0 1 2.5-4c3.861-1.098 3.861-1.931 0-2.5a39.445 39.445 0 0 1 5-2.5c-.086-.996.248-1.829 1-2.5 3.216-.003 5.883-1.169 8-3.5 1.444 1.481 2.111 1.148 2-1l2 1c1.788-.285 3.455.048 5 1-2.544 1.892-2.544 3.725 0 5.5-1.376 2.543-2.543 2.709-3.5.5a37.865 37.865 0 0 1-7.5 3c-.215 1.679.452 2.679 2 3-1.419.951-3.085 1.284-5 1-2.679.173-5.013 1.173-7 3-1.298 1.552-.965 2.552 1 3v2c-1.752-.082-2.752.751-3 2.5a42.098 42.098 0 0 0 6 9c1.707.195 3.374.195 5 0a7.293 7.293 0 0 1-3 2c2.227.704 2.56 1.871 1 3.5a64.899 64.899 0 0 0-5-2.5 3.647 3.647 0 0 0 1-1.5c-3.472-1.315-5.972-3.648-7.5-7a34 34 0 0 1-9 3c-.743-4.236-3.243-5.903-7.5-5v-3h-3v-3c-1.699.027-3.033.694-4 2-4.3-4.902-5.968-10.568-5-17h-3a151.546 151.546 0 0 0-6.5-27 128.43 128.43 0 0 1-.5-16l2-4Z" />
  <path fill="#dd9e77"
    d="M103.5 123.5c-.111.617-.444 1.117-1 1.5 2.293 1.695 4.627 2.362 7 2 1.323.816 1.989 1.983 2 3.5-8.939 1.78-12.106 7.113-9.5 16 2.605 4.209 6.105 7.376 10.5 9.5a13.92 13.92 0 0 0 3 4 5227.02 5227.02 0 0 0 11.5 6.5l1-1a81.316 81.316 0 0 0 2.5 3 211.35 211.35 0 0 0-7.5 3 11.068 11.068 0 0 1-3.5-2 3.647 3.647 0 0 0-1.5 1c-1.897-1.516-4.064-2.183-6.5-2-.841-4.34-3.175-7.674-7-10a14.72 14.72 0 0 1-1.5-5c-3.911-4.5-6.745-9.5-8.5-15 .664-4.973.997-9.973 1-15h8Z" />
  <path fill="#714531"
    d="M149.5 156.5h6c3.997 2.151 8.33 3.484 13 4-1.474 1.175-3.14 2.175-5 3a4.457 4.457 0 0 0 2 1.5c-3.95-.443-6.617 1.057-8 4.5-2.907-3.211-2.074-5.211 2.5-6 .765-1.566.598-2.899-.5-4-3.448-.392-6.614.275-9.5 2-4.214-1.671-4.381-3.338-.5-5Z" />
  <path fill="#624230"
    d="M88.5 127.5c-.166 5.344 0 10.677.5 16a151.546 151.546 0 0 1 6.5 27h3c-.968 6.432.7 12.098 5 17-1.322.17-2.489-.163-3.5-1-.541-3.115-2.041-5.448-4.5-7-2.404-6.712-4.07-13.712-5-21l-2-8a52.9 52.9 0 0 0-2-13l2-10Z" />
  <path fill="#c3886c"
    d="M146.5 147.5a29.23 29.23 0 0 0-1 9h4c-3.881 1.662-3.714 3.329.5 5 2.886-1.725 6.052-2.392 9.5-2 .17 1.322-.163 2.489-1 3.5a305.962 305.962 0 0 0-11 2.5l-2-1c.077-1.25.744-2.083 2-2.5-3.703-3.342-4.869-7.509-3.5-12.5.417-1.256 1.25-1.923 2.5-2Z" />
  <path fill="#e7a986"
    d="M155.5 123.5c-.214 1.644.12 3.144 1 4.5-.561 1.676-1.561 3.009-3 4a34.474 34.474 0 0 1 1 6c-1.085 4.579-3.752 7.745-8 9.5-1.25.077-2.083.744-2.5 2-1.369 4.991-.203 9.158 3.5 12.5-1.256.417-1.923 1.25-2 2.5-1.644.214-3.144-.12-4.5-1a4.934 4.934 0 0 0-.5 3 32.462 32.462 0 0 0-8 .5c-.916.278-1.582.778-2 1.5a81.316 81.316 0 0 1-2.5-3l-1 1a5227.02 5227.02 0 0 1-11.5-6.5 13.92 13.92 0 0 1-3-4c-4.395-2.124-7.895-5.291-10.5-9.5-2.606-8.887.561-14.22 9.5-16a21.435 21.435 0 0 0 7 1c-.548 1.894-1.548 3.56-3 5-5.495-2.353-7.995-.686-7.5 5a120.532 120.532 0 0 1 10.5 13.5 33.689 33.689 0 0 0 9 3.5 6.846 6.846 0 0 0-1 4c3.742.774 6.242-.559 7.5-4l1 1 1.5-6a62.722 62.722 0 0 0 6-9 54.107 54.107 0 0 0-10-2.5 32.462 32.462 0 0 1 8-.5v-3c4.678-1.006 8.344-3.506 11-7.5-.837-1.011-1.17-2.178-1-3.5a14.517 14.517 0 0 0 5-4Z" />
  <path fill="#da9981"
    d="M159.5 119.5c1.877-1.125 3.71-.791 5.5 1 1.281 5.976 3.114 11.643 5.5 17a80.297 80.297 0 0 0 3 17c-.636 3.295-2.636 4.628-6 4-3.787-1.495-7.787-2.162-12-2h-5c2.639-.746 5.306-1.746 8-3 3.723 3.191 7.556 3.524 11.5 1 .814-2.402.647-4.735-.5-7-1.797-1.631-2.964-3.631-3.5-6-.252-6.03-.752-12.03-1.5-18-1.079-2.08-2.745-3.413-5-4Z" />
  <path fill="#ebb18f"
    d="M150.5 127.5c-.17 1.322.163 2.489 1 3.5-2.656 3.994-6.322 6.494-11 7.5v3a32.462 32.462 0 0 0-8 .5c3.42.517 6.753 1.35 10 2.5a62.722 62.722 0 0 1-6 9l-1.5 6-1-1c-1.258 3.441-3.758 4.774-7.5 4a6.846 6.846 0 0 1 1-4 33.689 33.689 0 0 1-9-3.5 120.532 120.532 0 0 0-10.5-13.5c-.495-5.686 2.005-7.353 7.5-5 1.452-1.44 2.452-3.106 3-5 6.045.029 12.045.196 18 .5 3.223-.938 4.556-3.105 4-6.5h3c.934-1.068 1.268-2.401 1-4 4.661-.668 6.661 1.332 6 6Z" />
  <path fill="#c28968"
    d="M173.5 154.5a80.297 80.297 0 0 1-3-17c1.974 3.27 3.974 6.603 6 10l1-2c-1.725-4.155-2.391-8.489-2-13 2.222-.886 4.388-.886 6.5 0 2.197 1.869 4.363 3.702 6.5 5.5 1.535.496 3.035.33 4.5-.5a11.597 11.597 0 0 1 3.5 4.5 115.578 115.578 0 0 1-3 17.5c-2.213 2.58-4.38 2.58-6.5 0a4.457 4.457 0 0 1-1.5 2c-2.354-1.746-3.354-4.079-3-7h-3c.256-2.412-.744-4.079-3-5-.501 2.155-1.501 3.822-3 5Z" />
  <path fill="#c08776"
    d="M73.5 121.5c.961 1.765 1.295 3.765 1 6-.166 5.344 0 10.677.5 16 3.64 9.613 5.307 9.28 5-1 2.017 4.319 2.517 8.652 1.5 13h6a31.608 31.608 0 0 1-.5-8c.232 1.237.732 2.237 1.5 3l2 8c-7.882.812-13.048-2.521-15.5-10-2.618-8.885-3.118-17.885-1.5-27Z" />
  <path fill="#9f8a7e"
    d="M197.5 127.5c1.478 5.781 2.478 11.781 3 18a279.768 279.768 0 0 1-7 32v-7a224.475 224.475 0 0 0 5-26c-.089-4.831-1.422-9.165-4-13l3-4Z" />
  <path fill="#ecac90"
    d="M159.5 119.5c2.255.587 3.921 1.92 5 4 .748 5.97 1.248 11.97 1.5 18 .536 2.369 1.703 4.369 3.5 6 1.147 2.265 1.314 4.598.5 7-3.944 2.524-7.777 2.191-11.5-1-2.694 1.254-5.361 2.254-8 3h-5a29.23 29.23 0 0 1 1-9c4.248-1.755 6.915-4.921 8-9.5a34.474 34.474 0 0 0-1-6c1.439-.991 2.439-2.324 3-4-.88-1.356-1.214-2.856-1-4.5.893-1.797 2.226-3.13 4-4Z" />
  <path fill="#a07159"
    d="M178.5 125.5c4.027 1.858 8.36 2.525 13 2a13.116 13.116 0 0 0 1 7 44.093 44.093 0 0 1 2-3c2.578 3.835 3.911 8.169 4 13a224.475 224.475 0 0 1-5 26 31.147 31.147 0 0 0-2 2 21.614 21.614 0 0 1-4-5 20.855 20.855 0 0 0-6.5-3 40.914 40.914 0 0 1-.5-9c-1.599-.268-2.932.066-4 1-1.777 2.889-4.444 4.222-8 4-4.67-.516-9.003-1.849-13-4 4.213-.162 8.213.505 12 2 3.364.628 5.364-.705 6-4 1.499-1.178 2.499-2.845 3-5 2.256.921 3.256 2.588 3 5h3c-.354 2.921.646 5.254 3 7a4.457 4.457 0 0 0 1.5-2c2.12 2.58 4.287 2.58 6.5 0a115.578 115.578 0 0 0 3-17.5 11.597 11.597 0 0 0-3.5-4.5c-1.465.83-2.965.996-4.5.5a1564.705 1564.705 0 0 1-6.5-5.5c-2.112-.886-4.278-.886-6.5 0-.391 4.511.275 8.845 2 13l-1 2c-2.026-3.397-4.026-6.73-6-10a46.86 46.86 0 0 0-2-9c1.592 1.102 2.425.435 2.5-2 1.438 3.747 2.938 3.58 4.5-.5a4.934 4.934 0 0 1 3-.5Z" />
  <path fill="#ce816b"
    d="M85.5 134.5c.904.709 1.237 1.709 1 3a52.9 52.9 0 0 1 2 13c-.768-.763-1.268-1.763-1.5-3a31.608 31.608 0 0 0 .5 8h-6c1.017-4.348.517-8.681-1.5-13 .307 10.28-1.36 10.613-5 1a128.43 128.43 0 0 1-.5-16c3.902-5.446 7.235-4.946 10 1.5-1.954 1.741-2.954 3.908-3 6.5 1.459.067 2.792-.266 4-1Z" />
  <path fill="#cd927b"
    d="M139.5 124.5h4v1h-3c.556 3.395-.777 5.562-4 6.5a389.687 389.687 0 0 0-18-.5 21.435 21.435 0 0 1-7-1c-.011-1.517-.677-2.684-2-3.5-2.373.362-4.707-.305-7-2 .556-.383.889-.883 1-1.5h2c.923-.803 1.923-.97 3-.5 1.333 2 3 3.667 5 5 5.686.311 11.353.811 17 1.5a38.452 38.452 0 0 0 8-2.5c.752-.671 1.086-1.504 1-2.5Z" />
  <path fill="#a56a58"
    d="M105.5 116.5c.838.342 1.172 1.008 1 2-.904.709-1.237 1.709-1 3 3.758.575 7.258 1.909 10.5 4a11.123 11.123 0 0 0 2.5-1c.763.768 1.763 1.268 3 1.5-1.196.654-1.196 1.154 0 1.5a266.983 266.983 0 0 1 10-2.5c2.574-1.289 3.241-3.122 2-5.5h2c1.171.845 2.505 1.511 4 2 .616.702.616 1.702 0 3 .086.996-.248 1.829-1 2.5a38.452 38.452 0 0 1-8 2.5 255.577 255.577 0 0 0-17-1.5c-2-1.333-3.667-3-5-5-1.077-.47-2.077-.303-3 .5-2.457-2.482-2.457-4.816 0-7Z" />
  <path fill="#81685a"
    d="M197.5 123.5v4l-3 4a44.093 44.093 0 0 0-2 3 13.116 13.116 0 0 1-1-7c-4.64.525-8.973-.142-13-2-2.598-.972-2.598-1.972 0-3 2.125 2.318 4.791 3.152 8 2.5 1.655-1.444 2.322-3.278 2-5.5 3.544-.261 5.378 1.405 5.5 5 1.011-.837 2.178-1.17 3.5-1Z" />
  <path fill="#684d41"
    d="M202.5 105.5c.134 1.792-.199 3.458-1 5a12.93 12.93 0 0 0-5 .5c1.016.519 1.682 1.353 2 2.5a24.837 24.837 0 0 0-1 8 30.137 30.137 0 0 1-6-3.5 32.462 32.462 0 0 0-8-.5c-.133 3.396-1.133 3.729-3 1-3.609.787-4.276 2.12-2 4-2.598 1.028-2.598 2.028 0 3a4.934 4.934 0 0 0-3 .5c-1.562 4.08-3.062 4.247-4.5.5-.075 2.435-.908 3.102-2.5 2a20.69 20.69 0 0 0-1-5c.268-2.619-.065-5.119-1-7.5 3.356-.872 6.356-2.372 9-4.5-.077 1.25-.744 2.083-2 2.5a7.248 7.248 0 0 1 2 2.5c-1.635 1.181-3.302 1.181-5 0-.872 1.966-.705 3.966.5 6a81.765 81.765 0 0 1 10-7 23.745 23.745 0 0 1 8.5-1c-.262-1.478.071-2.811 1-4 3.232-.633 6.232-1.633 9-3 1.278-.282 2.278-.949 3-2Z" />
  <path fill="#9f7d73"
    d="M120.5 119.5c1.328 3.754 3.994 4.921 8 3.5.881-.708 1.547-1.542 2-2.5a31.147 31.147 0 0 0 2-2c.607.124.94.457 1 1 1.241 2.378.574 4.211-2 5.5a266.983 266.983 0 0 0-10 2.5c-1.196-.346-1.196-.846 0-1.5-1.237-.232-2.237-.732-3-1.5a20.69 20.69 0 0 1-1-5c1-1.333 2-1.333 3 0Z" />
  <path fill="#855b53"
    d="M129.5 108.5h6v4a4.934 4.934 0 0 0-3 .5c4.904 1.293 7.237 4.127 7 8.5-1.495-.489-2.829-1.155-4-2-.437-1.574-1.437-2.741-3-3.5-7.946-1.319-15.279.181-22 4.5 2.49 1.132 4.824.799 7-1a20.69 20.69 0 0 0 1 5c-.765.423-1.598.757-2.5 1-3.242-2.091-6.742-3.425-10.5-4-.237-1.291.096-2.291 1-3 3.159.019 5.826-1.148 8-3.5a2.428 2.428 0 0 0-2-.5c1.342-1.293 3.009-2.126 5-2.5l10-1c1.256-.417 1.923-1.25 2-2.5Z" />
  <path fill="#905243"
    d="M74.5 114.5c9.596 3.09 13.263 9.756 11 20-1.208.734-2.541 1.067-4 1 .046-2.592 1.046-4.759 3-6.5-2.765-6.446-6.098-6.946-10-1.5.295-2.235-.039-4.235-1-6a51.648 51.648 0 0 1 1-7Z" />
  <path fill="#2c221d"
    d="M197.5 121.5c1.006.896 1.006 1.562 0 2-1.322-.17-2.489.163-3.5 1-.122-3.595-1.956-5.261-5.5-5 .322 2.222-.345 4.056-2 5.5-3.209.652-5.875-.182-8-2.5-2.276-1.88-1.609-3.213 2-4 1.867 2.729 2.867 2.396 3-1a32.462 32.462 0 0 1 8 .5 30.137 30.137 0 0 0 6 3.5Z" />
  <path fill="#8b837f"
    d="M201.5 110.5a29.817 29.817 0 0 1-3 10c3.31.849 6.644.682 10-.5-3.878-1.065-3.878-1.899 0-2.5 1.819-.158 3.152.509 4 2a437.772 437.772 0 0 1-15 5v-1c1.006-.438 1.006-1.104 0-2a24.837 24.837 0 0 1 1-8c-.318-1.147-.984-1.981-2-2.5a12.93 12.93 0 0 1 5-.5Z" />
  <path fill="#312726"
    d="M130.5 120.5c-.453.958-1.119 1.792-2 2.5-4.006 1.421-6.672.254-8-3.5.679-2.314 2.012-2.647 4-1 1.823-1.247 3.823-1.914 6-2v4Z" />
  <path fill="#583f3e"
    d="M135.5 119.5h-2c-.06-.543-.393-.876-1-1a31.147 31.147 0 0 1-2 2v-4c-2.177.086-4.177.753-6 2-1.988-1.647-3.321-1.314-4 1-1-1.333-2-1.333-3 0-2.176 1.799-4.51 2.132-7 1 6.721-4.319 14.054-5.819 22-4.5 1.563.759 2.563 1.926 3 3.5Z" />
  <path fill="#966546"
    d="M147.5 109.5a31.774 31.774 0 0 1 7 2.5l-2 2a20.64 20.64 0 0 1 6 2c-2.247 1.995-3.247 4.495-3 7.5a14.517 14.517 0 0 1-5 4c.661-4.668-1.339-6.668-6-6 .268 1.599-.066 2.932-1 4v-1a5.576 5.576 0 0 0-1-3c2.737-3.484 4.404-7.484 5-12Z" />
  <path fill="#9b6d54"
    d="M178.5 105.5c-.412 2.387-1.412 4.387-3 6-2.644 2.128-5.644 3.628-9 4.5.935 2.381 1.268 4.881 1 7.5-1.268-2.405-1.935-5.072-2-8a18.453 18.453 0 0 1-6-.5c6.5-.814 11.833-3.814 16-9a4.934 4.934 0 0 1 3-.5Z" />
  <path fill="#754634"
    d="M143.5 103.5c.996-.086 1.829.248 2.5 1 .198 1.882.698 3.548 1.5 5-.596 4.516-2.263 8.516-5 12a5.576 5.576 0 0 1 1 3h-4c.616-1.298.616-2.298 0-3 .237-4.373-2.096-7.207-7-8.5a4.934 4.934 0 0 1 3-.5v-4h-6l-2-2c5.076 1.185 10.076 1.019 15-.5.752-.671 1.086-1.504 1-2.5Z" />
  <path fill="#493228"
    d="M197.5 97.5c.934 1.068 1.268 2.401 1 4a2.428 2.428 0 0 1-.5 2c-5.927-2.905-11.594-2.239-17 2a12.93 12.93 0 0 0-.5 5 97.917 97.917 0 0 1 19-3c-2.768 1.367-5.768 2.367-9 3-.929 1.189-1.262 2.522-1 4a23.745 23.745 0 0 0-8.5 1 81.765 81.765 0 0 0-10 7c-1.205-2.034-1.372-4.034-.5-6 1.698 1.181 3.365 1.181 5 0a7.248 7.248 0 0 0-2-2.5c1.256-.417 1.923-1.25 2-2.5 1.588-1.613 2.588-3.613 3-6a10.165 10.165 0 0 0 3-3c1.903-.296 3.57-.963 5-2h11v-3Z" />
  <path fill="#ad8368"
    d="m127.5 106.5 2 2c-.077 1.25-.744 2.083-2 2.5l-10 1c-1.991.374-3.658 1.207-5 2.5-4.232 1.269-8.232.603-12-2-.111-.617-.444-1.117-1-1.5 1.824-.66 3.157-1.827 4-3.5.418-.722 1.084-1.222 2-1.5 7.34-.372 14.673-.205 22 .5Z" />
  <path fill="#cab88c"
    d="M108.5 108.5c2.747-.313 5.414.02 8 1a36.308 36.308 0 0 0-7 4c-3.469-1.069-3.802-2.736-1-5Z" />
  <path fill="#bc835f"
    d="M165.5 53.5a258.733 258.733 0 0 1 10 5 4.934 4.934 0 0 0 .5 3 29.94 29.94 0 0 1 7 6 471.237 471.237 0 0 1 6 26c.5 1.167 1.333 2 2.5 2.5l-8 3a18.473 18.473 0 0 0-2 3.5 10.165 10.165 0 0 1-3 3 4.934 4.934 0 0 0-3 .5c-4.167 5.186-9.5 8.186-16 9 1.973.495 3.973.662 6 .5.065 2.928.732 5.595 2 8a20.69 20.69 0 0 1 1 5 46.86 46.86 0 0 1 2 9c-2.386-5.357-4.219-11.024-5.5-17-1.79-1.791-3.623-2.125-5.5-1-1.774.87-3.107 2.203-4 4-.247-3.005.753-5.505 3-7.5a20.64 20.64 0 0 0-6-2l2-2a31.774 31.774 0 0 0-7-2.5c-.802-1.452-1.302-3.118-1.5-5-.671-.752-1.504-1.086-2.5-1v-1h5c.077 1.25.744 2.083 2 2.5 2.859.553 5.692.386 8.5-.5a41.942 41.942 0 0 0 6.5 4c7.844-1.251 13.51-5.417 17-12.5a4.932 4.932 0 0 1 3-.5l-2-10c-1.808.009-3.475-.491-5-1.5 1.439-.99 2.439-2.324 3-4a4.932 4.932 0 0 0-3-.5c.073-6.948-1.594-13.448-5-19.5a603.517 603.517 0 0 1-8-4 86.718 86.718 0 0 0-24.5 1.5c-2.033-.006-3.866-.339-5.5-1 4.824-.492 9.49-1.159 14-2 5.14-.988 10.474-1.321 16-1Z" />
  <path fill="#2d241f"
    d="M201.5 80.5h1v25c-.722 1.051-1.722 1.718-3 2a97.917 97.917 0 0 0-19 3 12.93 12.93 0 0 1 .5-5c5.406-4.239 11.073-4.905 17-2a2.428 2.428 0 0 0 .5-2c.958.453 1.792 1.119 2.5 2 .588-3.81.088-7.476-1.5-11a28.689 28.689 0 0 0 2-12Z" />
  <path fill="#473127"
    d="M133.5 99.5h2a46.702 46.702 0 0 1 8 3v1c.086.996-.248 1.829-1 2.5-4.924 1.519-9.924 1.685-15 .5-2.461-1.031-5.127-1.698-8-2v-4a68.241 68.241 0 0 1 14-1Z" />
  <path fill="#261b19"
    d="M127.5 101.5c4.044-.542 7.711.291 11 2.5a42.479 42.479 0 0 1-13 0l-1-1c1.237-.232 2.237-.732 3-1.5Z" />
  <path fill="#6d4a39"
    d="M111.5 96.5a6623.964 6623.964 0 0 1 22 3 68.241 68.241 0 0 0-14 1v4c2.873.302 5.539.969 8 2a150.076 150.076 0 0 0-22-.5c-.916.278-1.582.778-2 1.5-1.844-.704-2.344-2.037-1.5-4a119.38 119.38 0 0 1 6.5-4c1.4-.6 2.4-1.6 3-3Z" />
  <path fill="#d1936b"
    d="M148.5 102.5c.617.111 1.117.444 1.5 1a116.965 116.965 0 0 0 10-5c5.346 6.644 11.18 7.311 17.5 2 1.09-.891 1.09-1.891 0-3a4.451 4.451 0 0 1 2-1.5l-2-6c-5.251-1.574-9.751-4.408-13.5-8.5.41-1.957 1.576-3.624 3.5-5-1.759-3.722-4.759-5.722-9-6-1.333-2.667-3.333-4.667-6-6-.929-1.189-1.262-2.522-1-4-9.028-.18-18.028.153-27 1 2.225-4.449 5.891-6.116 11-5 1.634.661 3.467.994 5.5 1a86.718 86.718 0 0 1 24.5-1.5 603.517 603.517 0 0 0 8 4c3.406 6.052 5.073 12.552 5 19.5a4.932 4.932 0 0 1 3 .5c-.561 1.676-1.561 3.01-3 4 1.525 1.009 3.192 1.509 5 1.5l2 10a4.932 4.932 0 0 0-3 .5c-3.49 7.083-9.156 11.249-17 12.5a41.942 41.942 0 0 1-6.5-4c-2.808.886-5.641 1.053-8.5.5-1.256-.417-1.923-1.25-2-2.5Z" />
  <path fill="#aeaeae"
    d="M69.5 72.5a106.675 106.675 0 0 0-.5 24c1.989 3.753 2.822 7.753 2.5 12-3.376-7.283-4.71-15.116-4-23.5.008-4.557.675-8.724 2-12.5Z" />
  <path fill="#4b3322"
    d="M95.5 81.5c.658 10.35-.342 20.351-3 30a111.806 111.806 0 0 0-1-19l1.5-9c.708-.88 1.542-1.547 2.5-2Z" />
  <path fill="#815437"
    d="M109.5 63.5a168.568 168.568 0 0 0-10.5 21 173.038 173.038 0 0 0-3.5 28h5c3.768 2.603 7.768 3.269 12 2a2.428 2.428 0 0 1 2 .5c-2.174 2.352-4.841 3.519-8 3.5.172-.992-.162-1.658-1-2-3.385-1.745-7.052-2.245-11-1.5-.68 3.242-2.014 6.075-4 8.5l2-12c2.658-9.649 3.658-19.65 3-30 .876.13 1.543-.203 2-1a81.76 81.76 0 0 1 5-11 134.329 134.329 0 0 1 7-6Z" />
  <path fill="#a86f46"
    d="M149.5 54.5c-4.51.841-9.176 1.508-14 2-5.109-1.116-8.775.551-11 5h-1c-6.042.938-11.209 3.605-15.5 8a26.674 26.674 0 0 1-1.5 6.5 7.253 7.253 0 0 1 2 2.5 63.048 63.048 0 0 1-4 13c.75 3.158 2.083 5.825 4 8a119.38 119.38 0 0 0-6.5 4c-.844 1.963-.344 3.296 1.5 4-.843 1.673-2.176 2.84-4 3.5.556.383.889.883 1 1.5h-5a173.038 173.038 0 0 1 3.5-28 168.568 168.568 0 0 1 10.5-21h2a84.54 84.54 0 0 0 18-8.5c6.658-.5 13.325-.666 20-.5Z" />
  <path fill="#7c7975"
    d="M200.5 65.5c1.531 4.75 2.198 9.75 2 15h-1c.35-4.046-.317-7.88-2-11.5.837-1.011 1.17-2.178 1-3.5Z" />
  <path fill="#e0a27c"
    d="M148.5 102.5h-5a46.702 46.702 0 0 0-8-3c4.651.18 9.151.18 13.5 0 .684-1.284.517-2.45-.5-3.5.928-.388 1.595-1.055 2-2a728.713 728.713 0 0 1-7-12l1-2.5a38.817 38.817 0 0 1 7-1.5c1.102-2.4 1.269-4.9.5-7.5-.741 1.14-1.575 1.14-2.5 0a25.534 25.534 0 0 0-4-4.5c-4.068-1.894-8.402-2.727-13-2.5-.788 3.463-2.455 6.463-5 9a50.113 50.113 0 0 0 2 7.5c-2.534 2.587-2.534 5.253 0 8a33.902 33.902 0 0 1-6 3.5c-.929 1.189-1.262 2.522-1 4h-5a15.892 15.892 0 0 0-1-6.5l4-7a9.26 9.26 0 0 0-2-2.5l2-1c-1.365-2.25-1.031-4.25 1-6-.976-1.623-.476-2.957 1.5-4 .497-2.31.663-4.643.5-7h1a236.676 236.676 0 0 1 27-1c-.262 1.478.071 2.811 1 4 2.667 1.333 4.667 3.333 6 6 4.241.278 7.241 2.278 9 6-1.924 1.376-3.09 3.043-3.5 5 3.749 4.092 8.249 6.926 13.5 8.5l2 6a4.451 4.451 0 0 0-2 1.5c1.09 1.109 1.09 2.109 0 3-6.32 5.311-12.154 4.644-17.5-2a116.965 116.965 0 0 1-10 5c-.383-.556-.883-.889-1.5-1Z" />
  <path fill="#0f0d0b"
    d="M162.5 28.5c1.25-.077 2.083-.744 2.5-2 1.356.88 2.856 1.213 4.5 1a37.66 37.66 0 0 0 2.5 8c2.12-4.182 3.453-3.848 4 1 1.972-1.943 4.139-2.276 6.5-1 3.907 1.808 6.407 4.808 7.5 9 1.183-1.231 2.349-1.231 3.5 0a32.444 32.444 0 0 1 1.5 6l1-3c1.66 4.293 1.827 8.626.5 13-.011 2.417.989 4.083 3 5h1c.17 1.322-.163 2.489-1 3.5 1.683 3.62 2.35 7.454 2 11.5a28.689 28.689 0 0 1-2 12c1.588 3.524 2.088 7.19 1.5 11-.708-.881-1.542-1.547-2.5-2 .268-1.599-.066-2.932-1-4a233.696 233.696 0 0 0-1.5-16c-.39-2.604-1.224-4.938-2.5-7-.181-4.195-1.847-7.695-5-10.5a39.793 39.793 0 0 1-8-7 99.805 99.805 0 0 1-13-5.5c-1.75-1.37-3.75-2.37-6-3a3783.953 3783.953 0 0 0-19-2 3.647 3.647 0 0 1 1-1.5c-3-.667-6-.667-9 0l5 1a25.249 25.249 0 0 1-10 0c5.179-2.087 4.845-3.753-1-5 2.318-.342 4.485.158 6.5 1.5 2.333-.82 4.5-1.153 6.5-1-.59-1.299-1.59-2.132-3-2.5a25.789 25.789 0 0 1-8-2c2.667-.667 2.667-1.333 0-2a8.189 8.189 0 0 0 4-2.5c1.211.774 1.211 1.607 0 2.5 1.671 1.844 3.671 2.51 6 2-1.146-2.557-.146-3.89 3-4a29.109 29.109 0 0 1-9-4c2.391-.691 2.391-1.691 0-3-1.333-.667-2.667-.667-4 0 .948.483 1.948.65 3 .5v4c-1.644-.213-3.144.12-4.5 1-.684-1.284-.517-2.45.5-3.5a4.932 4.932 0 0 0-3-.5c1.246 3.337 2.079 6.67 2.5 10-.414.457-.914.79-1.5 1l-2.5-3c-.718.95-1.551 1.117-2.5.5-1.343-4.656-2.676-4.656-4 0 1.333 1.333 1.333 2.667 0 4a3.944 3.944 0 0 0 1 2c1.438.219 2.771.719 4 1.5-2.359 1.205-4.526.872-6.5-1-1.722.11-1.888.61-.5 1.5l-4 1a37.728 37.728 0 0 0 10 4.5c-3.635.02-7.302.354-11 1l-2-6c-2.315-.734-4.148-2.068-5.5-4a6.802 6.802 0 0 1-1.5 3c-1.936-2.478-3.936-2.478-6 0a4.452 4.452 0 0 0 2 1.5 20.627 20.627 0 0 0-6 2c1.134 1.016.8 1.683-1 2 2.648 3.61 4.148 3.11 4.5-1.5a607.635 607.635 0 0 0 8 8l1.5-.5c-2.105-1.193-3.772-2.86-5-5l1-.5a64.959 64.959 0 0 1 6 4.5c-.548 1.596.118 2.763 2 3.5-1.785 2.454-4.118 4.121-7 5a489.008 489.008 0 0 1-6.5 12 24.939 24.939 0 0 0-.5 7c-.958.453-1.792 1.12-2.5 2l-1.5 9a111.806 111.806 0 0 1 1 19l-2 12-2 4-2 10c.237-1.291-.096-2.291-1-3 2.263-10.244-1.404-16.91-11-20l-3-6c.322-4.247-.511-8.247-2.5-12-.736-8.035-.57-16.035.5-24l13.5-27c5.85-7.304 12.35-13.804 19.5-19.5 2.409-1.707 5.075-2.54 8-2.5 2.041 1.758 4.208 2.425 6.5 2 .317-1.8.984-2.134 2-1 4.37-.815 8.704-1.815 13-3 2 2.667 4 2.667 6 0a23.602 23.602 0 0 0 3.5 3c-3.3 3.579-2.633 5.912 2 7a43.067 43.067 0 0 0 5-1.5l-5-3c2.431-.252 4.765.248 7 1.5l3-1.5c-1.211-.893-1.211-1.726 0-2.5l2 4a31.192 31.192 0 0 0 4.5-4c.608 1.566 1.442 2.9 2.5 4Z" />
  <path fill="#a47558"
    d="M175.5 58.5a38.588 38.588 0 0 0 7 3.5c1.351 2.264 3.017 4.098 5 5.5.146 4.02.479 8.02 1 12h3c.355 5.725.855 11.392 1.5 17a119.442 119.442 0 0 1-6.5 4c-1.43 1.037-3.097 1.704-5 2a18.473 18.473 0 0 1 2-3.5l8-3c-1.167-.5-2-1.333-2.5-2.5a471.237 471.237 0 0 0-6-26 29.94 29.94 0 0 0-7-6 4.934 4.934 0 0 1-.5-3Z" />
  <path fill="#8a6d5d"
    d="M187.5 67.5a18.489 18.489 0 0 1 3.5 2c.374 1.991 1.207 3.658 2.5 5 1.276 2.063 2.11 4.396 2.5 7a233.696 233.696 0 0 1 1.5 16v3h-11a119.442 119.442 0 0 0 6.5-4 324.598 324.598 0 0 1-1.5-17h-3c-.521-3.98-.854-7.98-1-12Z" />
  <path fill="#cf8f65"
    d="M123.5 61.5a24.935 24.935 0 0 1-.5 7c-1.976 1.043-2.476 2.377-1.5 4-2.031 1.75-2.365 3.75-1 6l-2 1a9.26 9.26 0 0 1 2 2.5l-4 7a15.892 15.892 0 0 1 1 6.5c-2.235-.295-4.235.039-6 1-.6 1.4-1.6 2.4-3 3-1.917-2.175-3.25-4.842-4-8a63.048 63.048 0 0 0 4-13 7.253 7.253 0 0 0-2-2.5 26.674 26.674 0 0 0 1.5-6.5c4.291-4.395 9.458-7.062 15.5-8Z" />
  <path fill="#e6af8c"
    d="M135.5 99.5h-2a6623.964 6623.964 0 0 0-22-3c1.765-.961 3.765-1.295 6-1h5c-.262-1.478.071-2.811 1-4a33.902 33.902 0 0 0 6-3.5c-2.534-2.747-2.534-5.413 0-8a50.113 50.113 0 0 1-2-7.5c2.545-2.537 4.212-5.537 5-9 4.598-.227 8.932.606 13 2.5a25.534 25.534 0 0 1 4 4.5c.925 1.14 1.759 1.14 2.5 0 .769 2.6.602 5.1-.5 7.5a38.817 38.817 0 0 0-7 1.5l-1 2.5c2.253 3.95 4.586 7.95 7 12-.405.945-1.072 1.612-2 2 1.017 1.05 1.184 2.216.5 3.5-4.349.18-8.849.18-13.5 0Z" />
  <path fill="#4a3125"
    d="M161.5 48.5c2.25.63 4.25 1.63 6 3a221.114 221.114 0 0 0-38 .5c-.916.278-1.582.778-2 1.5a95.808 95.808 0 0 0-12 5.5c-2.135.876-3.469 2.376-4 4.5h-2a134.329 134.329 0 0 0-7 6 81.76 81.76 0 0 0-5 11c-.457.797-1.124 1.13-2 1-.163-2.357.003-4.69.5-7a489.008 489.008 0 0 0 6.5-12c2.882-.879 5.215-2.546 7-5a8.435 8.435 0 0 0 4-.5c1.129-3.518 3.296-4.685 6.5-3.5 13.546-3.839 27.379-5.506 41.5-5Z" />
  <path fill="#86593d"
    d="M165.5 53.5c-5.526-.321-10.86.012-16 1-6.675-.166-13.342 0-20 .5a84.54 84.54 0 0 1-18 8.5c.531-2.124 1.865-3.624 4-4.5a95.808 95.808 0 0 1 12-5.5c12.827-1.107 25.494-1.107 38 0Z" />
  <path fill="#684731"
    d="M167.5 51.5a99.805 99.805 0 0 0 13 5.5 39.793 39.793 0 0 0 8 7c3.153 2.805 4.819 6.305 5 10.5-1.293-1.342-2.126-3.009-2.5-5a18.489 18.489 0 0 0-3.5-2c-1.983-1.402-3.649-3.236-5-5.5a38.588 38.588 0 0 1-7-3.5 258.733 258.733 0 0 0-10-5c-12.506-1.107-25.173-1.107-38 0 .418-.722 1.084-1.222 2-1.5a221.114 221.114 0 0 1 38-.5Z" />
  <path fill="#1a1917"
    d="M161.5 48.5c-14.121-.506-27.954 1.161-41.5 5-3.204-1.185-5.371-.018-6.5 3.5a8.435 8.435 0 0 1-4 .5c-1.882-.737-2.548-1.904-2-3.5a64.959 64.959 0 0 0-6-4.5l-1 .5c1.228 2.14 2.895 3.807 5 5l-1.5.5a607.635 607.635 0 0 1-8-8c-.352 4.61-1.852 5.11-4.5 1.5 1.8-.317 2.134-.984 1-2a20.627 20.627 0 0 1 6-2 4.452 4.452 0 0 1-2-1.5c2.064-2.478 4.064-2.478 6 0a6.802 6.802 0 0 0 1.5-3c1.352 1.932 3.185 3.266 5.5 4l2 6a65.987 65.987 0 0 1 11-1 37.728 37.728 0 0 1-10-4.5l4-1c-1.388-.89-1.222-1.39.5-1.5 1.974 1.872 4.141 2.205 6.5 1a10.255 10.255 0 0 0-4-1.5 3.944 3.944 0 0 1-1-2c1.333-1.333 1.333-2.667 0-4 1.324-4.656 2.657-4.656 4 0 .949.617 1.782.45 2.5-.5l2.5 3a3.646 3.646 0 0 0 1.5-1c-.421-3.33-1.254-6.663-2.5-10a4.932 4.932 0 0 1 3 .5c-1.017 1.05-1.184 2.216-.5 3.5 1.356-.88 2.856-1.213 4.5-1v-4a4.932 4.932 0 0 1-3-.5c1.333-.667 2.667-.667 4 0 2.391 1.309 2.391 2.309 0 3a29.109 29.109 0 0 0 9 4c-3.146.11-4.146 1.443-3 4-2.329.51-4.329-.156-6-2 1.211-.893 1.211-1.726 0-2.5a8.189 8.189 0 0 1-4 2.5c2.667.667 2.667 1.333 0 2a25.789 25.789 0 0 0 8 2c1.41.368 2.41 1.201 3 2.5-2-.153-4.167.18-6.5 1-2.015-1.342-4.182-1.842-6.5-1.5 5.845 1.247 6.179 2.913 1 5 3.333.667 6.667.667 10 0l-5-1c3-.667 6-.667 9 0a3.647 3.647 0 0 0-1 1.5c6.488.667 12.821 1.333 19 2Z" />
  <path fill="#747370"
    d="M191.5 36.5c2.016.956 3.849 2.29 5.5 4 5.383 6.883 6.549 14.216 3.5 22a180.542 180.542 0 0 1-1.5-16l-1 1a10.1 10.1 0 0 1-1.5-6c-3.202-.037-4.868-1.703-5-5Z" />
  <path fill="#2a2927"
    d="M161.5 18.5a4.932 4.932 0 0 1 3 .5 292.587 292.587 0 0 0 27 17.5c.132 3.297 1.798 4.963 5 5a10.1 10.1 0 0 0 1.5 6l1-1c.265 5.382.765 10.715 1.5 16-.904.709-1.237 1.709-1 3-2.011-.917-3.011-2.583-3-5 1.327-4.374 1.16-8.707-.5-13l-1 3a32.444 32.444 0 0 0-1.5-6c-1.151-1.231-2.317-1.231-3.5 0-1.093-4.192-3.593-7.192-7.5-9-2.361-1.276-4.528-.943-6.5 1-.547-4.848-1.88-5.182-4-1a37.66 37.66 0 0 1-2.5-8c-1.644.213-3.144-.12-4.5-1-.417 1.256-1.25 1.923-2.5 2-.464-3.56-.798-6.893-1-10Z" />
  <path fill="#1e1e1d"
    d="M161.5 18.5c.202 3.107.536 6.44 1 10-1.058-1.1-1.892-2.434-2.5-4a31.192 31.192 0 0 1-4.5 4l-2-4c-1.211.774-1.211 1.607 0 2.5l-3 1.5c-2.235-1.252-4.569-1.752-7-1.5l5 3a43.067 43.067 0 0 1-5 1.5c-4.633-1.088-5.3-3.421-2-7a23.602 23.602 0 0 1-3.5-3c-2 2.667-4 2.667-6 0a157.629 157.629 0 0 1-13 3c-1.016-1.134-1.683-.8-2 1-2.292.425-4.459-.242-6.5-2l1-2c8.529-.066 16.862-.733 25-2 1.1-1.058 2.434-1.892 4-2.5l8.5-.5c4.442-.174 8.609.493 12.5 2Z" />
  <path fill="#5f5f5e" d="M136.5 19.5c-8.138 1.267-16.471 1.934-25 2 8.11-1.614 16.444-2.28 25-2Z" />
  <path fill="#191510"
    d="M181.5 208.5c-1.764 3.493-4.431 6.16-8 8a46.86 46.86 0 0 0-6 10c-.806-1.497-1.472-3.164-2-5a1660.53 1660.53 0 0 0-24-2 29746.61 29746.61 0 0 0-10-4 26.707 26.707 0 0 1-7-5c2.508-1.114 4.675-.447 6.5 2l1-1c4.146.933 7.98 2.433 11.5 4.5 6 .667 12 .667 18 0 2.679-1.579 5.346-2.246 8-2 1.769-2.7 3.102-5.534 4-8.5h1c1.967.239 3.801-.094 5.5-1 1.188 1.063 1.688 2.397 1.5 4Z" />
  <path fill="#5e878b"
    d="M98.5 189.5c1 .333 1.667 1 2 2-1.914 3.184-2.58 6.851-2 11a97.186 97.186 0 0 0 5.5 20 3057.957 3057.957 0 0 1 13 19 177.572 177.572 0 0 0 10.5 12c.321 1.548 1.321 2.215 3 2a51.569 51.569 0 0 1 1 7h-1l-2-1c-.371-3.705-2.371-5.705-6-6-1.035-1.705-1.035-3.372 0-5l-3-3c-.607.124-.94.457-1 1-1.1 1.105-1.767 2.438-2 4-2.429-2.628-4.762-5.962-7-10-1.166 1.865-.833 3.532 1 5a31.147 31.147 0 0 0-2 2 102.082 102.082 0 0 0-12-17.5 3.942 3.942 0 0 0 1-2c-1.455-2.248-2.288-4.748-2.5-7.5a59.247 59.247 0 0 1-1.5 7.5 27.297 27.297 0 0 1 4 9 4.934 4.934 0 0 1-3 .5 284.539 284.539 0 0 1-6-18c-1.45 1.155-2.45 2.655-3 4.5-3.266.406-3.599 1.906-1 4.5 3.88.21 5.547 2.21 5 6a35.175 35.175 0 0 1-8-2 14.729 14.729 0 0 1-1.5-5c-1.567 1.668-3.234 2.002-5 1-4.686 1.369-8.852 3.369-12.5 6-.958-.453-1.792-1.119-2.5-2a43.25 43.25 0 0 0-3-10c-1.488 3.29-.988 6.457 1.5 9.5a86.314 86.314 0 0 0-10 3c-.752.671-1.086 1.504-1 2.5-2.06 3.378-5.06 5.711-9 7a153.436 153.436 0 0 1-11-13c.363-.683.696-1.35 1-2a2036.595 2036.595 0 0 1 56-23.5c5.407-4.285 9.24-9.785 11.5-16.5.708-.881 1.542-1.547 2.5-2Z" />
  <path fill="#c8996b"
    d="M127.5 223.5a52.053 52.053 0 0 0 4 8.5c-1.054 1.388-1.22 2.888-.5 4.5 2.172 1.009 3.338 2.676 3.5 5a19.048 19.048 0 0 0-6 1c-2.016-.678-4.016-1.344-6-2-1.068-.934-2.401-1.268-4-1-.418-2.939-1.918-5.272-4.5-7a71.818 71.818 0 0 1-7.5-13 25.93 25.93 0 0 0-3.5-9 90.569 90.569 0 0 1-2.5-13c1.478-.262 2.811.071 4 1 .973 3.648 3.307 5.314 7 5a8.43 8.43 0 0 0 .5 4 22.37 22.37 0 0 0 8.5 5 88.201 88.201 0 0 0 7 11Z" />
  <path fill="#583c2a"
    d="M141.5 219.5a1660.53 1660.53 0 0 1 24 2c.528 1.836 1.194 3.503 2 5-1.668 1.979-2.334 4.312-2 7a8.941 8.941 0 0 0-3 4l-2 2a85.81 85.81 0 0 0 1-7.5 173.887 173.887 0 0 0-2-8.5 50.464 50.464 0 0 1-10-.5c-3.001-.738-5.668-1.904-8-3.5Z" />
  <path fill="#704c33"
    d="m131.5 215.5 10 4c2.332 1.596 4.999 2.762 8 3.5 3.317.498 6.65.665 10 .5.729 2.78 1.396 5.613 2 8.5a85.81 85.81 0 0 1-1 7.5h-1c.654-4.086-.512-7.419-3.5-10-1.11 1.537-2.61 2.203-4.5 2v-4c-5.246-.227-9.579-2.227-13-6-1.548-.321-2.215-1.321-2-3-2.785.584-4.452-.416-5-3Z" />
  <path fill="#476d72"
    d="M183.5 211.5a409.027 409.027 0 0 0 6 3 71.73 71.73 0 0 0 3 9 4.933 4.933 0 0 1-1 2.5c1.566.608 2.9 1.442 4 2.5-1.685.684-2.685 2.017-3 4 .997 2.311 1.497 4.644 1.5 7l-2-2-2 18-1-11-1 25a514.75 514.75 0 0 0-1.5-32 23.966 23.966 0 0 1-3.5 8 6.802 6.802 0 0 0-1.5-3 61.347 61.347 0 0 0-3 13h-4c.802-4.25 2.136-8.25 4-12a56.477 56.477 0 0 0 2.5-10l1 4a7.293 7.293 0 0 1 2-3 89.468 89.468 0 0 1 1.5-12c-1.724-3.45-2.391-7.117-2-11Z" />
  <path fill="#835d3e"
    d="M138.5 221.5c3.421 3.773 7.754 5.773 13 6v4c1.89.203 3.39-.463 4.5-2 2.988 2.581 4.154 5.914 3.5 10 .032 2.119-.968 3.452-3 4a8.43 8.43 0 0 0-.5-4 30.935 30.935 0 0 0-8-3 20.64 20.64 0 0 1-2-6 45.689 45.689 0 0 1-8.5-7.5c.556-.383.889-.883 1-1.5Z" />
  <path fill="#b88d65"
    d="M127.5 223.5a45.278 45.278 0 0 0 7.5 7c2.416 4.678 4.416 9.678 6 15 2.8.625 5.634 1.292 8.5 2 1.493.641 2.493 1.641 3 3-.996-.086-1.829.248-2.5 1-3.183-2.379-6.516-2.379-10 0a40.513 40.513 0 0 0 .5 8.5 97.885 97.885 0 0 1-2 11c-.018 2.442.649 4.608 2 6.5-1.542-.801-3.208-1.134-5-1 2.169-6.821 2.502-13.821 1-21a56.064 56.064 0 0 1-4.5-8c-3.858-1.501-7.025-3.834-9.5-7 1.984.656 3.984 1.322 6 2a19.048 19.048 0 0 1 6-1c-.162-2.324-1.328-3.991-3.5-5-.72-1.612-.554-3.112.5-4.5a52.053 52.053 0 0 1-4-8.5Z" />
  <path fill="#355052"
    d="M181.5 208.5c-.073 1.527.594 2.527 2 3-.391 3.883.276 7.55 2 11a89.468 89.468 0 0 0-1.5 12 7.293 7.293 0 0 0-2 3l-1-4a56.477 56.477 0 0 1-2.5 10c-.768.763-1.268 1.763-1.5 3l-1-2c-.452 3.638-2.286 5.972-5.5 7-.774 3.944-1.441 3.777-2-.5a689.368 689.368 0 0 1 6.5-33.5 201.783 201.783 0 0 0-9.5 16c-.334-2.688.332-5.021 2-7a46.86 46.86 0 0 1 6-10c3.569-1.84 6.236-4.507 8-8Z" />
  <path fill="#715943"
    d="M98.5 202.5a70.21 70.21 0 0 0 8 17 71.818 71.818 0 0 0 7.5 13c2.582 1.728 4.082 4.061 4.5 7a77.606 77.606 0 0 1 9 14 177.572 177.572 0 0 1-10.5-12 3057.957 3057.957 0 0 0-13-19 97.186 97.186 0 0 1-5.5-20Z" />
  <path fill="#6c8f95"
    d="M189.5 214.5a141.339 141.339 0 0 1 14 7.5c17.114 5.556 32.781 13.722 47 24.5-2.64-.454-4.973-1.621-7-3.5-16.11-4.78-32.11-9.613-48-14.5-1.1-1.058-2.434-1.892-4-2.5a4.933 4.933 0 0 0 1-2.5 71.73 71.73 0 0 1-3-9Z" />
  <path fill="#a07650"
    d="M100.5 191.5c5.275 6.164 11.275 11.664 18 16.5a23.423 23.423 0 0 0 6 2.5 26.707 26.707 0 0 0 7 5c.548 2.584 2.215 3.584 5 3-.215 1.679.452 2.679 2 3-.111.617-.444 1.117-1 1.5a45.689 45.689 0 0 0 8.5 7.5 20.64 20.64 0 0 0 2 6c2.8.628 5.467 1.628 8 3a8.43 8.43 0 0 1 .5 4c.351 3.312-.982 5.645-4 7-.507-1.359-1.507-2.359-3-3-2.866-.708-5.7-1.375-8.5-2-1.584-5.322-3.584-10.322-6-15a45.278 45.278 0 0 1-7.5-7 88.201 88.201 0 0 1-7-11 22.37 22.37 0 0 1-8.5-5 8.43 8.43 0 0 1-.5-4c-3.693.314-6.027-1.352-7-5-1.189-.929-2.522-1.262-4-1a90.569 90.569 0 0 0 2.5 13 25.93 25.93 0 0 1 3.5 9 70.21 70.21 0 0 1-8-17c-.58-4.149.086-7.816 2-11Z" />
  <path fill="#406062"
    d="M178.5 243.5c-1.864 3.75-3.198 7.75-4 12l-6.5 13a80.056 80.056 0 0 0 1.5-12c-2.09-.05-3.423.95-4 3a4.457 4.457 0 0 0 2 1.5c-1.656 2.406-2.156 4.906-1.5 7.5-1.563 2.544-3.063 2.544-4.5 0a4.457 4.457 0 0 0-1.5 2c-.575 9.139-3.408 17.473-8.5 25a9.108 9.108 0 0 1-5 1 25.407 25.407 0 0 1 6.5-7 416.407 416.407 0 0 0 9-35l1 4 3-5c.78-1.887.613-3.554-.5-5l-2-2c3.407-.674 4.74-2.841 4-6.5l-.5-4.5a39.064 39.064 0 0 1-4.5 2 8.941 8.941 0 0 1 3-4 201.783 201.783 0 0 1 9.5-16 689.368 689.368 0 0 0-6.5 33.5c.559 4.277 1.226 4.444 2 .5 3.214-1.028 5.048-3.362 5.5-7l1 2c.232-1.237.732-2.237 1.5-3Z" />
  <path fill="#61959a"
    d="M108.5 249.5a348.639 348.639 0 0 0 4 7c.774 1.211 1.607 1.211 2.5 0 .495 1.973.662 3.973.5 6h-4c-2.871-4.162-5.204-3.996-7 .5-.113 1.699.553 2.866 2 3.5-.689 1.274-1.523 1.274-2.5 0a121.031 121.031 0 0 0-6.5-12l-3-1c-4.428 2.642-8.762 2.642-13 0a2.429 2.429 0 0 1-2-.5 51.104 51.104 0 0 1-4-5.5 115.798 115.798 0 0 0-11-7c-1.205-1.077-1.872-2.41-2-4 3.648-2.631 7.814-4.631 12.5-6 1.766 1.002 3.433.668 5-1a14.729 14.729 0 0 0 1.5 5 35.175 35.175 0 0 0 8 2c.547-3.79-1.12-5.79-5-6-2.599-2.594-2.266-4.094 1-4.5.55-1.845 1.55-3.345 3-4.5a284.539 284.539 0 0 0 6 18 4.934 4.934 0 0 0 3-.5 27.297 27.297 0 0 0-4-9 59.247 59.247 0 0 0 1.5-7.5c.212 2.752 1.045 5.252 2.5 7.5a3.942 3.942 0 0 1-1 2 102.082 102.082 0 0 1 12 17.5Z" />
  <path fill="#667c7a"
    d="M163.5 246.5c-2.316.922-3.983 2.589-5 5a103.042 103.042 0 0 0-11 13h-3v4c-1.113-1.446-1.28-3.113-.5-5 3.369-4.096 6.202-8.429 8.5-13 3.018-1.355 4.351-3.688 4-7 2.032-.548 3.032-1.881 3-4h1l2-2a39.064 39.064 0 0 0 4.5-2l.5 4.5c.74 3.659-.593 5.826-4 6.5Z" />
  <path fill="#4c7b83"
    d="M195.5 228.5c15.89 4.887 31.89 9.72 48 14.5 2.027 1.879 4.36 3.046 7 3.5.551 2.767 1.884 5.1 4 7-30.67 29.668-67.336 44.001-110 43h2a9.108 9.108 0 0 0 5-1c5.092-7.527 7.925-15.861 8.5-25a4.457 4.457 0 0 1 1.5-2c1.437 2.544 2.937 2.544 4.5 0-.656-2.594-.156-5.094 1.5-7.5a4.457 4.457 0 0 1-2-1.5c.577-2.05 1.91-3.05 4-3a80.056 80.056 0 0 1-1.5 12l6.5-13h4a61.347 61.347 0 0 1 3-13 6.802 6.802 0 0 1 1.5 3 23.966 23.966 0 0 0 3.5-8 514.75 514.75 0 0 1 1.5 32l1-25 1 11 2-18 2 2c-.003-2.356-.503-4.689-1.5-7 .315-1.983 1.315-3.316 3-4Z" />
  <path fill="#926f4f"
    d="M118.5 239.5c1.599-.268 2.932.066 4 1 2.475 3.166 5.642 5.499 9.5 7a56.064 56.064 0 0 0 4.5 8c1.502 7.179 1.169 14.179-1 21-1.38-.462-2.047-1.462-2-3 .972-2.964 1.138-5.964.5-9-.708-.881-1.542-1.547-2.5-2a51.569 51.569 0 0 0-1-7c-1.679.215-2.679-.452-3-2a77.606 77.606 0 0 0-9-14Z" />
  <path fill="#142326"
    d="m163.5 246.5 2 2v4c-2.751.028-5.085 1.028-7 3-.792-1.2-.792-2.533 0-4 1.017-2.411 2.684-4.078 5-5Z" />
  <path fill="#a1b5be"
    d="M122.5 255.5c3.629.295 5.629 2.295 6 6-.814 1.773-2.148 2.273-4 1.5-2.28-2.297-2.946-4.797-2-7.5Z" />
  <path fill="#417378"
    d="M62.5 236.5c.128 1.59.795 2.923 2 4a115.798 115.798 0 0 1 11 7 51.104 51.104 0 0 0 4 5.5 2.429 2.429 0 0 0 2 .5 17.91 17.91 0 0 0 4 6 4.451 4.451 0 0 0 1.5-2c-.095 3.144.072 6.144.5 9a18.973 18.973 0 0 1-8-2 49.85 49.85 0 0 1-10-10.5c-3.215-.274-5.881-1.607-8-4a50.89 50.89 0 0 1-7-10 24.935 24.935 0 0 0-7-.5c-.086-.996.248-1.829 1-2.5a86.314 86.314 0 0 1 10-3c-2.488-3.043-2.988-6.21-1.5-9.5a43.25 43.25 0 0 1 3 10c.708.881 1.542 1.547 2.5 2Z" />
  <path fill="#c9a37e"
    d="M152.5 250.5c-2.298 4.571-5.131 8.904-8.5 13-.78 1.887-.613 3.554.5 5 2.385 2.102 3.718 4.769 4 8a434.944 434.944 0 0 1-3 8c-.617.111-1.117.444-1.5 1-.875-2.901-2.042-5.568-3.5-8-1.351-1.892-2.018-4.058-2-6.5a97.885 97.885 0 0 0 2-11 40.513 40.513 0 0 1-.5-8.5c3.484-2.379 6.817-2.379 10 0 .671-.752 1.504-1.086 2.5-1Z" />
  <path fill="#4a6c6f"
    d="M144.5 296.5h-8a87.147 87.147 0 0 0-2-8l1-1a23.342 23.342 0 0 1 3 7.5c1.823.132 2.823-.868 3-3-2.064-7.048-6.731-11.381-14-13a362.3 362.3 0 0 1-14-13.5 4.457 4.457 0 0 1 1.5-2c3.495 5.666 8.328 9.666 14.5 12 1.952-1.728 3.285-3.895 4-6.5-1.954-1.741-2.954-3.908-3-6.5h1c.958.453 1.792 1.119 2.5 2 .638 3.036.472 6.036-.5 9-.047 1.538.62 2.538 2 3 3.383 2.789 5.05 6.455 5 11 2.785.584 4.452-.416 5-3a434.944 434.944 0 0 0 3-8c-.282-3.231-1.615-5.898-4-8v-4h3c-.111.617-.444 1.117-1 1.5 4.324.1 8.157-1.4 11.5-4.5-1.227 13.09-5.727 24.757-13.5 35Z" />
  <path fill="#4d7d84"
    d="M116.5 252.5a40.914 40.914 0 0 0 .5 9c1.936-2.28 2.769-4.947 2.5-8-.007-1.869-.34-3.536-1-5 .06-.543.393-.876 1-1l3 3c-1.035 1.628-1.035 3.295 0 5-.946 2.703-.28 5.203 2 7.5 1.852.773 3.186.273 4-1.5l2 1c.046 2.592 1.046 4.759 3 6.5-.715 2.605-2.048 4.772-4 6.5-6.172-2.334-11.005-6.334-14.5-12a4.457 4.457 0 0 0-1.5 2 362.3 362.3 0 0 0 14 13.5c7.269 1.619 11.936 5.952 14 13-.177 2.132-1.177 3.132-3 3a23.342 23.342 0 0 0-3-7.5l-1 1a87.147 87.147 0 0 1 2 8 41.73 41.73 0 0 1-9-1c-3.56-2.05-5.726-5.05-6.5-9 1.028 1.861 2.528 3.195 4.5 4l1-1.5a92.45 92.45 0 0 0-10-15c-2.292 1.101-3.792.268-4.5-2.5-.05 4.198.95 8.198 3 12 .808 2.079.641 4.079-.5 6-1.54-1.937-3.54-3.104-6-3.5l2-1c-1.544-.29-2.877-.956-4-2h-6c-3.915-2.745-6.915-6.245-9-10.5a6.845 6.845 0 0 0-4-1c-3.234-1.644-5.9-3.977-8-7a18.973 18.973 0 0 0 8 2c-.428-2.856-.595-5.856-.5-9a4.451 4.451 0 0 1-1.5 2 17.91 17.91 0 0 1-4-6c4.238 2.642 8.572 2.642 13 0l3 1a121.031 121.031 0 0 1 6.5 12c.977 1.274 1.811 1.274 2.5 0 2.563-.231 4.23-1.565 5-4h4a18.453 18.453 0 0 0-.5-6c-.893 1.211-1.726 1.211-2.5 0a348.639 348.639 0 0 1-4-7 31.147 31.147 0 0 1 2-2c-1.833-1.468-2.166-3.135-1-5 2.238 4.038 4.571 7.372 7 10Z" />
  <path fill="#b0c5d1"
    d="M111.5 262.5c-.77 2.435-2.437 3.769-5 4-1.447-.634-2.113-1.801-2-3.5 1.796-4.496 4.129-4.662 7-.5Z" />
  <path fill="#102a2e"
    d="M118.5 248.5c.66 1.464.993 3.131 1 5 .269 3.053-.564 5.72-2.5 8a40.914 40.914 0 0 1-.5-9c.233-1.562.9-2.895 2-4Z" />
  <path fill="#54868d"
    d="M87.5 271.5a6.845 6.845 0 0 1 4 1c2.085 4.255 5.085 7.755 9 10.5h6c1.123 1.044 2.456 1.71 4 2l-2 1c2.46.396 4.46 1.563 6 3.5 1.141-1.921 1.308-3.921.5-6-2.05-3.802-3.05-7.802-3-12 .708 2.768 2.208 3.601 4.5 2.5a92.45 92.45 0 0 1 10 15l-1 1.5c-1.972-.805-3.472-2.139-4.5-4 .774 3.95 2.94 6.95 6.5 9-21.415-3.077-40.915-10.744-58.5-23-.492-1.049-.326-2.049.5-3-2.305-.731-4.138-2.064-5.5-4l-1 1c-.5-1.833-1.667-3-3.5-3.5 1.14-.741 1.14-1.575 0-2.5a16.874 16.874 0 0 1 8-1c.977 5.62 4.31 8.62 10 9v3c2.298.81 4.632 1.644 7 2.5 2.412 3.033 5.412 4.7 9 5-1.57-3.656-3.57-6.156-6-7.5Z" />
  <path fill="#254143"
    d="M165.5 248.5c1.113 1.446 1.28 3.113.5 5l-3 5-1-4a416.407 416.407 0 0 1-9 35 25.407 25.407 0 0 0-6.5 7h-2c7.773-10.243 12.273-21.91 13.5-35-3.343 3.1-7.176 4.6-11.5 4.5.556-.383.889-.883 1-1.5a103.042 103.042 0 0 1 11-13c-.792 1.467-.792 2.8 0 4 1.915-1.972 4.249-2.972 7-3v-4Z" />
  <path fill="#7d7868"
    d="M135.5 276.5c1.792-.134 3.458.199 5 1 1.458 2.432 2.625 5.099 3.5 8 .383-.556.883-.889 1.5-1-.548 2.584-2.215 3.584-5 3 .05-4.545-1.617-8.211-5-11Z" />
</svg>
